# MagicaVoxel @ Ephtracy

# group
o 

# material
mtllib BobHead.mtl
usemtl palette

# normals
vn -1 0 0
vn 1 0 0
vn 0 0 1
vn 0 0 -1
vn 0 -1 0
vn 0 1 0

# texcoords
vt 0.0332031 0.5
vt 0.0878906 0.5
vt 0.470703 0.5
vt 0.783203 0.5
vt 0.869141 0.5

# verts
v -0.5 3.1 0.4
v -0.5 3.1 0.3
v -0.5 3.2 0.4
v -0.5 3.2 0.3
v -0.5 3.2 0
v -0.5 3.2 -0.1
v -0.5 3.5 0
v -0.5 3.5 -0.1
v -0.5 3.6 0.5
v -0.5 3.6 -0.5
v -0.5 3.9 0.5
v -0.5 3.9 -0.5
v -0.4 2.9 0.4
v -0.4 2.9 0
v -0.4 2.9 -0.4
v -0.4 3 0.5
v -0.4 3 0.4
v -0.4 3 -0.3
v -0.4 3 -0.4
v -0.4 3.1 0.4
v -0.4 3.1 0.3
v -0.4 3.1 -0.2
v -0.4 3.1 -0.3
v -0.4 3.2 0.5
v -0.4 3.2 0.4
v -0.4 3.2 0.3
v -0.4 3.2 0
v -0.4 3.2 -0.1
v -0.4 3.2 -0.2
v -0.4 3.4 0.3
v -0.4 3.4 0.2
v -0.4 3.5 0.2
v -0.4 3.5 0.1
v -0.4 3.5 0
v -0.4 3.5 -0.1
v -0.4 3.6 0.4
v -0.4 3.6 0.1
v -0.4 3.6 -0.4
v -0.3 2.9 0.5
v -0.3 2.9 0.4
v -0.3 3 0.5
v -0.3 3 0.4
v -0.3 3.5 -0.4
v -0.3 3.5 -0.7
v -0.3 3.6 -0.4
v -0.3 3.6 -0.5
v -0.3 3.6 -0.7
v -0.3 3.9 0.5
v -0.3 3.9 -0.5
v -0.3 4 0.5
v -0.3 4 -0.5
v -0.2 2.8 0.2
v -0.2 2.8 -0.2
v -0.2 2.9 0.2
v -0.2 2.9 0
v -0.2 2.9 -0.2
v -0.1 3.2 0.5
v -0.1 3.2 0.4
v -0.1 3.3 0.5
v -0.1 3.3 0.4
v 0.2 3.7 0.5
v 0.2 3.7 0.4
v 0.2 3.7 0.3
v 0.2 3.7 -0.3
v 0.2 3.7 -0.4
v 0.2 3.8 0.5
v 0.2 3.8 0.4
v 0.2 3.8 0.3
v 0.2 3.8 -0.4
v -0.2 3.7 0.5
v -0.2 3.7 0.4
v -0.2 3.7 0.3
v -0.2 3.7 -0.3
v -0.2 3.7 -0.4
v -0.2 3.8 0.5
v -0.2 3.8 0.4
v -0.2 3.8 0.3
v -0.2 3.8 -0.4
v 0.1 3.2 0.5
v 0.1 3.2 0.4
v 0.1 3.3 0.5
v 0.1 3.3 0.4
v 0.2 2.8 0.2
v 0.2 2.8 -0.2
v 0.2 2.9 0.2
v 0.2 2.9 0
v 0.2 2.9 -0.2
v 0.3 2.9 0.5
v 0.3 2.9 0.4
v 0.3 3 0.5
v 0.3 3 0.4
v 0.3 3.5 -0.4
v 0.3 3.5 -0.7
v 0.3 3.6 -0.4
v 0.3 3.6 -0.5
v 0.3 3.6 -0.7
v 0.3 3.9 0.5
v 0.3 3.9 -0.5
v 0.3 4 0.5
v 0.3 4 -0.5
v 0.4 2.9 0.4
v 0.4 2.9 0
v 0.4 2.9 -0.4
v 0.4 3 0.5
v 0.4 3 0.4
v 0.4 3 -0.3
v 0.4 3 -0.4
v 0.4 3.1 0.4
v 0.4 3.1 0.3
v 0.4 3.1 -0.2
v 0.4 3.1 -0.3
v 0.4 3.2 0.5
v 0.4 3.2 0.4
v 0.4 3.2 0.3
v 0.4 3.2 0
v 0.4 3.2 -0.1
v 0.4 3.2 -0.2
v 0.4 3.4 0.3
v 0.4 3.4 0.2
v 0.4 3.5 0.2
v 0.4 3.5 0.1
v 0.4 3.5 0
v 0.4 3.5 -0.1
v 0.4 3.6 0.4
v 0.4 3.6 0.1
v 0.4 3.6 -0.4
v 0.5 3.1 0.4
v 0.5 3.1 0.3
v 0.5 3.2 0.4
v 0.5 3.2 0.3
v 0.5 3.2 0
v 0.5 3.2 -0.1
v 0.5 3.5 0
v 0.5 3.5 -0.1
v 0.5 3.6 0.5
v 0.5 3.6 -0.5
v 0.5 3.9 0.5
v 0.5 3.9 -0.5
v -0.5 3.6 0.5
v -0.5 3.9 0.5
v -0.4 3 0.5
v -0.4 3.2 0.5
v -0.3 2.9 0.5
v -0.3 3 0.5
v -0.3 3.9 0.5
v -0.3 4 0.5
v -0.2 3.7 0.5
v -0.2 3.8 0.5
v -0.1 3.2 0.5
v -0.1 3.3 0.5
v 0.1 3.2 0.5
v 0.1 3.3 0.5
v 0.2 3.7 0.5
v 0.2 3.8 0.5
v 0.3 2.9 0.5
v 0.3 3 0.5
v 0.3 3.9 0.5
v 0.3 4 0.5
v 0.4 3 0.5
v 0.4 3.2 0.5
v 0.5 3.6 0.5
v 0.5 3.9 0.5
v -0.5 3.1 0.4
v -0.5 3.2 0.4
v -0.4 2.9 0.4
v -0.4 3 0.4
v -0.4 3.1 0.4
v -0.4 3.2 0.4
v -0.4 3.6 0.4
v -0.3 2.9 0.4
v -0.3 3 0.4
v -0.3 3.3 0.4
v -0.3 3.5 0.4
v -0.2 3.3 0.4
v -0.2 3.5 0.4
v -0.2 3.7 0.4
v -0.2 3.8 0.4
v -0.1 3.2 0.4
v -0.1 3.3 0.4
v 0.1 3.2 0.4
v 0.1 3.3 0.4
v 0.2 3.3 0.4
v 0.2 3.5 0.4
v 0.2 3.7 0.4
v 0.2 3.8 0.4
v 0.3 2.9 0.4
v 0.3 3 0.4
v 0.3 3.3 0.4
v 0.3 3.5 0.4
v 0.4 2.9 0.4
v 0.4 3 0.4
v 0.4 3.1 0.4
v 0.4 3.2 0.4
v 0.4 3.6 0.4
v 0.5 3.1 0.4
v 0.5 3.2 0.4
v -0.2 2.8 0.2
v -0.2 2.9 0.2
v 0.2 2.8 0.2
v 0.2 2.9 0.2
v -0.5 3.2 0
v -0.5 3.5 0
v -0.4 3.2 0
v -0.4 3.5 0
v 0.4 3.2 0
v 0.4 3.5 0
v 0.5 3.2 0
v 0.5 3.5 0
v -0.2 3.7 -0.4
v -0.2 3.8 -0.4
v 0.2 3.7 -0.4
v 0.2 3.8 -0.4
v -0.5 3.1 0.3
v -0.5 3.2 0.3
v -0.4 3.1 0.3
v -0.4 3.2 0.3
v -0.2 3.7 0.3
v -0.2 3.8 0.3
v 0.2 3.7 0.3
v 0.2 3.8 0.3
v 0.4 3.1 0.3
v 0.4 3.2 0.3
v 0.5 3.1 0.3
v 0.5 3.2 0.3
v -0.5 3.2 -0.1
v -0.5 3.5 -0.1
v -0.4 3.2 -0.1
v -0.4 3.5 -0.1
v 0.4 3.2 -0.1
v 0.4 3.5 -0.1
v 0.5 3.2 -0.1
v 0.5 3.5 -0.1
v -0.2 2.8 -0.2
v -0.2 2.9 -0.2
v 0.2 2.8 -0.2
v 0.2 2.9 -0.2
v -0.4 2.9 -0.4
v -0.4 3 -0.4
v -0.4 3.6 -0.4
v -0.3 3.5 -0.4
v -0.3 3.6 -0.4
v 0.3 3.5 -0.4
v 0.3 3.6 -0.4
v 0.4 2.9 -0.4
v 0.4 3 -0.4
v 0.4 3.6 -0.4
v -0.5 3.6 -0.5
v -0.5 3.9 -0.5
v -0.3 3.6 -0.5
v -0.3 3.9 -0.5
v -0.3 4 -0.5
v 0.3 3.6 -0.5
v 0.3 3.9 -0.5
v 0.3 4 -0.5
v 0.5 3.6 -0.5
v 0.5 3.9 -0.5
v -0.3 3.5 -0.7
v -0.3 3.6 -0.7
v 0.3 3.5 -0.7
v 0.3 3.6 -0.7
v -0.2 2.8 0.2
v 0.2 2.8 0.2
v -0.1 2.8 0.1
v 0.1 2.8 0.1
v -0.1 2.8 -0.1
v 0.1 2.8 -0.1
v -0.2 2.8 -0.2
v 0.2 2.8 -0.2
v -0.3 2.9 0.5
v 0.3 2.9 0.5
v -0.4 2.9 0.4
v -0.3 2.9 0.4
v 0.3 2.9 0.4
v 0.4 2.9 0.4
v -0.2 2.9 0.2
v 0.2 2.9 0.2
v -0.4 2.9 0
v -0.2 2.9 0
v 0.2 2.9 0
v 0.4 2.9 0
v -0.2 2.9 -0.2
v 0.2 2.9 -0.2
v -0.4 2.9 -0.4
v 0.4 2.9 -0.4
v -0.4 3 0.5
v -0.3 3 0.5
v 0.3 3 0.5
v 0.4 3 0.5
v -0.4 3 0.4
v -0.3 3 0.4
v 0.3 3 0.4
v 0.4 3 0.4
v -0.5 3.1 0.4
v -0.4 3.1 0.4
v 0.4 3.1 0.4
v 0.5 3.1 0.4
v -0.5 3.1 0.3
v -0.4 3.1 0.3
v 0.4 3.1 0.3
v 0.5 3.1 0.3
v -0.5 3.2 0
v -0.4 3.2 0
v 0.4 3.2 0
v 0.5 3.2 0
v -0.5 3.2 -0.1
v -0.4 3.2 -0.1
v 0.4 3.2 -0.1
v 0.5 3.2 -0.1
v -0.3 3.5 -0.4
v 0.3 3.5 -0.4
v -0.3 3.5 -0.7
v 0.3 3.5 -0.7
v -0.5 3.6 0.5
v 0.5 3.6 0.5
v -0.4 3.6 0.4
v 0.4 3.6 0.4
v -0.4 3.6 0.1
v 0.4 3.6 0.1
v -0.4 3.6 -0.4
v -0.3 3.6 -0.4
v 0.3 3.6 -0.4
v 0.4 3.6 -0.4
v -0.5 3.6 -0.5
v -0.3 3.6 -0.5
v 0.3 3.6 -0.5
v 0.5 3.6 -0.5
v -0.2 3.8 0.5
v 0.2 3.8 0.5
v -0.2 3.8 0.4
v 0.2 3.8 0.4
v -0.2 3.8 0.3
v 0.2 3.8 0.3
v -0.2 3.8 -0.4
v 0.2 3.8 -0.4
v -0.4 3.2 0.5
v -0.1 3.2 0.5
v 0.1 3.2 0.5
v 0.4 3.2 0.5
v -0.5 3.2 0.4
v -0.4 3.2 0.4
v -0.1 3.2 0.4
v 0.1 3.2 0.4
v 0.4 3.2 0.4
v 0.5 3.2 0.4
v -0.5 3.2 0.3
v -0.4 3.2 0.3
v 0.4 3.2 0.3
v 0.5 3.2 0.3
v -0.1 3.3 0.5
v 0.1 3.3 0.5
v -0.1 3.3 0.4
v 0.1 3.3 0.4
v -0.5 3.5 0
v -0.4 3.5 0
v 0.4 3.5 0
v 0.5 3.5 0
v -0.5 3.5 -0.1
v -0.4 3.5 -0.1
v 0.4 3.5 -0.1
v 0.5 3.5 -0.1
v -0.3 3.6 -0.5
v 0.3 3.6 -0.5
v -0.3 3.6 -0.7
v 0.3 3.6 -0.7
v -0.2 3.7 0.5
v 0.2 3.7 0.5
v -0.2 3.7 0.4
v 0.2 3.7 0.4
v -0.2 3.7 0.3
v 0.2 3.7 0.3
v -0.2 3.7 -0.3
v 0.2 3.7 -0.3
v -0.2 3.7 -0.4
v 0.2 3.7 -0.4
v -0.5 3.9 0.5
v -0.3 3.9 0.5
v 0.3 3.9 0.5
v 0.5 3.9 0.5
v -0.5 3.9 -0.5
v -0.3 3.9 -0.5
v 0.3 3.9 -0.5
v 0.5 3.9 -0.5
v -0.3 4 0.5
v 0.3 4 0.5
v -0.3 4 -0.5
v 0.3 4 -0.5

# faces
f 3/5/1 2/5/1 1/5/1
f 4/5/1 2/5/1 3/5/1
f 7/1/1 6/1/1 5/1/1
f 8/1/1 6/1/1 7/1/1
f 11/2/1 10/2/1 9/2/1
f 12/2/1 10/2/1 11/2/1
f 17/5/1 14/5/1 13/5/1
f 18/1/1 15/1/1 14/1/1
f 19/1/1 15/1/1 18/1/1
f 20/5/1 17/5/1 16/5/1
f 20/5/1 14/5/1 17/5/1
f 21/5/1 14/5/1 20/5/1
f 22/1/1 18/1/1 14/1/1
f 23/5/1 19/5/1 18/5/1
f 23/1/1 18/1/1 22/1/1
f 24/5/1 20/5/1 16/5/1
f 25/5/1 20/5/1 24/5/1
f 26/5/1 14/5/1 21/5/1
f 27/1/1 22/1/1 14/1/1
f 27/5/1 14/5/1 26/5/1
f 28/1/1 22/1/1 27/1/1
f 29/5/1 23/5/1 22/5/1
f 29/1/1 22/1/1 28/1/1
f 30/1/1 26/1/1 25/1/1
f 30/5/1 27/5/1 26/5/1
f 31/5/1 27/5/1 30/5/1
f 32/1/1 31/1/1 30/1/1
f 32/5/1 27/5/1 31/5/1
f 33/5/1 27/5/1 32/5/1
f 34/5/1 27/5/1 33/5/1
f 35/5/1 29/5/1 28/5/1
f 36/1/1 30/1/1 25/1/1
f 36/1/1 32/1/1 30/1/1
f 36/1/1 33/1/1 32/1/1
f 37/5/1 34/5/1 33/5/1
f 37/1/1 33/1/1 36/1/1
f 37/5/1 35/5/1 34/5/1
f 38/5/1 23/5/1 29/5/1
f 38/5/1 35/5/1 37/5/1
f 38/5/1 19/5/1 23/5/1
f 38/5/1 29/5/1 35/5/1
f 41/5/1 40/5/1 39/5/1
f 42/5/1 40/5/1 41/5/1
f 45/2/1 44/2/1 43/2/1
f 46/2/1 44/2/1 45/2/1
f 47/2/1 44/2/1 46/2/1
f 50/2/1 49/2/1 48/2/1
f 51/2/1 49/2/1 50/2/1
f 54/4/1 53/4/1 52/4/1
f 55/4/1 53/4/1 54/4/1
f 56/4/1 53/4/1 55/4/1
f 59/1/1 58/1/1 57/1/1
f 60/1/1 58/1/1 59/1/1
f 66/2/1 62/2/1 61/2/1
f 67/2/1 62/2/1 66/2/1
f 68/2/1 65/2/1 64/2/1
f 68/2/1 64/2/1 63/2/1
f 69/2/1 65/2/1 68/2/1
f 70/2/2 71/2/2 75/2/2
f 75/2/2 71/2/2 76/2/2
f 73/2/2 74/2/2 77/2/2
f 72/2/2 73/2/2 77/2/2
f 77/2/2 74/2/2 78/2/2
f 79/1/2 80/1/2 81/1/2
f 81/1/2 80/1/2 82/1/2
f 83/4/2 84/4/2 85/4/2
f 85/4/2 84/4/2 86/4/2
f 86/4/2 84/4/2 87/4/2
f 88/5/2 89/5/2 90/5/2
f 90/5/2 89/5/2 91/5/2
f 92/2/2 93/2/2 94/2/2
f 94/2/2 93/2/2 95/2/2
f 95/2/2 93/2/2 96/2/2
f 97/2/2 98/2/2 99/2/2
f 99/2/2 98/2/2 100/2/2
f 101/5/2 102/5/2 105/5/2
f 102/1/2 103/1/2 106/1/2
f 106/1/2 103/1/2 107/1/2
f 104/5/2 105/5/2 108/5/2
f 105/5/2 102/5/2 108/5/2
f 108/5/2 102/5/2 109/5/2
f 102/1/2 106/1/2 110/1/2
f 106/5/2 107/5/2 111/5/2
f 110/1/2 106/1/2 111/1/2
f 104/5/2 108/5/2 112/5/2
f 112/5/2 108/5/2 113/5/2
f 109/5/2 102/5/2 114/5/2
f 102/1/2 110/1/2 115/1/2
f 114/5/2 102/5/2 115/5/2
f 115/1/2 110/1/2 116/1/2
f 110/5/2 111/5/2 117/5/2
f 116/1/2 110/1/2 117/1/2
f 113/1/2 114/1/2 118/1/2
f 114/5/2 115/5/2 118/5/2
f 118/5/2 115/5/2 119/5/2
f 118/1/2 119/1/2 120/1/2
f 119/5/2 115/5/2 120/5/2
f 120/5/2 115/5/2 121/5/2
f 121/5/2 115/5/2 122/5/2
f 116/5/2 117/5/2 123/5/2
f 113/1/2 118/1/2 124/1/2
f 118/1/2 120/1/2 124/1/2
f 120/1/2 121/1/2 124/1/2
f 121/5/2 122/5/2 125/5/2
f 124/1/2 121/1/2 125/1/2
f 122/5/2 123/5/2 125/5/2
f 117/5/2 111/5/2 126/5/2
f 125/5/2 123/5/2 126/5/2
f 111/5/2 107/5/2 126/5/2
f 123/5/2 117/5/2 126/5/2
f 127/5/2 128/5/2 129/5/2
f 129/5/2 128/5/2 130/5/2
f 131/1/2 132/1/2 133/1/2
f 133/1/2 132/1/2 134/1/2
f 135/2/2 136/2/2 137/2/2
f 137/2/2 136/2/2 138/2/2
f 144/5/3 142/5/3 141/5/3
f 145/2/3 140/2/3 139/2/3
f 147/2/3 145/2/3 139/2/3
f 147/2/3 146/2/3 145/2/3
f 148/2/3 146/2/3 147/2/3
f 149/5/3 144/5/3 143/5/3
f 149/5/3 142/5/3 144/5/3
f 151/5/3 149/5/3 143/5/3
f 151/1/3 150/1/3 149/1/3
f 152/1/3 150/1/3 151/1/3
f 153/2/3 147/2/3 139/2/3
f 154/2/3 146/2/3 148/2/3
f 155/5/3 151/5/3 143/5/3
f 156/5/3 151/5/3 155/5/3
f 157/2/3 154/2/3 153/2/3
f 157/2/3 146/2/3 154/2/3
f 158/2/3 146/2/3 157/2/3
f 159/5/3 151/5/3 156/5/3
f 160/5/3 151/5/3 159/5/3
f 161/2/3 153/2/3 139/2/3
f 161/2/3 157/2/3 153/2/3
f 162/2/3 157/2/3 161/2/3
f 167/5/3 164/5/3 163/5/3
f 168/5/3 164/5/3 167/5/3
f 170/5/3 166/5/3 165/5/3
f 171/5/3 166/5/3 170/5/3
f 172/1/3 169/1/3 168/1/3
f 173/1/3 169/1/3 172/1/3
f 174/1/3 172/1/3 168/1/3
f 174/5/3 173/5/3 172/5/3
f 175/1/3 169/1/3 173/1/3
f 175/5/3 173/5/3 174/5/3
f 178/1/3 174/1/3 168/1/3
f 178/1/3 175/1/3 174/1/3
f 179/1/3 175/1/3 178/1/3
f 181/1/3 175/1/3 179/1/3
f 182/1/3 175/1/3 181/1/3
f 182/1/3 181/1/3 180/1/3
f 183/1/3 169/1/3 175/1/3
f 183/1/3 175/1/3 182/1/3
f 184/5/3 177/5/3 176/5/3
f 185/5/3 177/5/3 184/5/3
f 188/1/3 182/1/3 180/1/3
f 188/5/3 183/5/3 182/5/3
f 189/1/3 169/1/3 183/1/3
f 189/5/3 183/5/3 188/5/3
f 190/5/3 187/5/3 186/5/3
f 191/5/3 187/5/3 190/5/3
f 193/1/3 188/1/3 180/1/3
f 193/1/3 189/1/3 188/1/3
f 194/1/3 169/1/3 189/1/3
f 194/1/3 189/1/3 193/1/3
f 195/5/3 193/5/3 192/5/3
f 196/5/3 193/5/3 195/5/3
f 199/4/3 198/4/3 197/4/3
f 200/4/3 198/4/3 199/4/3
f 203/1/3 202/1/3 201/1/3
f 204/1/3 202/1/3 203/1/3
f 207/1/3 206/1/3 205/1/3
f 208/1/3 206/1/3 207/1/3
f 211/2/3 210/2/3 209/2/3
f 212/2/3 210/2/3 211/2/3
f 213/5/4 214/5/4 215/5/4
f 215/5/4 214/5/4 216/5/4
f 217/5/4 218/5/4 219/5/4
f 219/5/4 218/5/4 220/5/4
f 221/5/4 222/5/4 223/5/4
f 223/5/4 222/5/4 224/5/4
f 225/1/4 226/1/4 227/1/4
f 227/1/4 226/1/4 228/1/4
f 229/1/4 230/1/4 231/1/4
f 231/1/4 230/1/4 232/1/4
f 233/4/4 234/4/4 235/4/4
f 235/4/4 234/4/4 236/4/4
f 238/5/4 239/5/4 240/5/4
f 240/5/4 239/5/4 241/5/4
f 238/5/4 240/5/4 242/5/4
f 237/1/4 238/1/4 244/1/4
f 242/5/4 243/5/4 245/5/4
f 244/1/4 238/1/4 245/1/4
f 238/5/4 242/5/4 245/5/4
f 245/5/4 243/5/4 246/5/4
f 247/2/4 248/2/4 249/2/4
f 249/2/4 248/2/4 250/2/4
f 249/2/4 250/2/4 252/2/4
f 250/2/4 251/2/4 252/2/4
f 252/2/4 251/2/4 253/2/4
f 253/2/4 251/2/4 254/2/4
f 252/2/4 253/2/4 255/2/4
f 255/2/4 253/2/4 256/2/4
f 257/2/4 258/2/4 259/2/4
f 259/2/4 258/2/4 260/2/4
f 263/4/5 262/4/5 261/4/5
f 264/4/5 262/4/5 263/4/5
f 265/4/5 263/4/5 261/4/5
f 265/3/5 264/3/5 263/3/5
f 266/4/5 262/4/5 264/4/5
f 266/3/5 264/3/5 265/3/5
f 267/4/5 265/4/5 261/4/5
f 267/4/5 266/4/5 265/4/5
f 268/4/5 262/4/5 266/4/5
f 268/4/5 266/4/5 267/4/5
f 272/5/5 270/5/5 269/5/5
f 273/5/5 270/5/5 272/5/5
f 275/5/5 272/5/5 271/5/5
f 275/5/5 274/5/5 273/5/5
f 275/5/5 273/5/5 272/5/5
f 276/5/5 274/5/5 275/5/5
f 277/5/5 275/5/5 271/5/5
f 278/5/5 275/5/5 277/5/5
f 279/5/5 274/5/5 276/5/5
f 280/5/5 274/5/5 279/5/5
f 281/1/5 278/1/5 277/1/5
f 282/1/5 280/1/5 279/1/5
f 283/1/5 281/1/5 277/1/5
f 283/1/5 282/1/5 281/1/5
f 284/1/5 280/1/5 282/1/5
f 284/1/5 282/1/5 283/1/5
f 289/5/5 286/5/5 285/5/5
f 290/5/5 286/5/5 289/5/5
f 291/5/5 288/5/5 287/5/5
f 292/5/5 288/5/5 291/5/5
f 297/5/5 294/5/5 293/5/5
f 298/5/5 294/5/5 297/5/5
f 299/5/5 296/5/5 295/5/5
f 300/5/5 296/5/5 299/5/5
f 305/1/5 302/1/5 301/1/5
f 306/1/5 302/1/5 305/1/5
f 307/1/5 304/1/5 303/1/5
f 308/1/5 304/1/5 307/1/5
f 311/2/5 310/2/5 309/2/5
f 312/2/5 310/2/5 311/2/5
f 315/2/5 314/2/5 313/2/5
f 316/2/5 314/2/5 315/2/5
f 317/2/5 315/2/5 313/2/5
f 318/2/5 314/2/5 316/2/5
f 319/2/5 317/2/5 313/2/5
f 322/2/5 314/2/5 318/2/5
f 323/2/5 320/2/5 319/2/5
f 323/2/5 319/2/5 313/2/5
f 324/2/5 320/2/5 323/2/5
f 325/2/5 322/2/5 321/2/5
f 326/2/5 314/2/5 322/2/5
f 326/2/5 322/2/5 325/2/5
f 329/2/5 328/2/5 327/2/5
f 330/2/5 328/2/5 329/2/5
f 333/2/5 332/2/5 331/2/5
f 334/2/5 332/2/5 333/2/5
f 335/5/6 336/5/6 340/5/6
f 340/5/6 336/5/6 341/5/6
f 337/5/6 338/5/6 342/5/6
f 342/5/6 338/5/6 343/5/6
f 339/5/6 340/5/6 345/5/6
f 345/5/6 340/5/6 346/5/6
f 343/5/6 344/5/6 347/5/6
f 347/5/6 344/5/6 348/5/6
f 349/1/6 350/1/6 351/1/6
f 351/1/6 350/1/6 352/1/6
f 353/1/6 354/1/6 357/1/6
f 357/1/6 354/1/6 358/1/6
f 355/1/6 356/1/6 359/1/6
f 359/1/6 356/1/6 360/1/6
f 361/2/6 362/2/6 363/2/6
f 363/2/6 362/2/6 364/2/6
f 365/2/6 366/2/6 367/2/6
f 367/2/6 366/2/6 368/2/6
f 369/1/6 370/1/6 371/1/6
f 371/1/6 370/1/6 372/1/6
f 371/5/6 372/5/6 373/5/6
f 373/5/6 372/5/6 374/5/6
f 375/2/6 376/2/6 379/2/6
f 379/2/6 376/2/6 380/2/6
f 377/2/6 378/2/6 381/2/6
f 381/2/6 378/2/6 382/2/6
f 383/2/6 384/2/6 385/2/6
f 385/2/6 384/2/6 386/2/6
