# MagicaVoxel @ Ephtracy

# group
o 

# material
mtllib BobTorsoe.mtl
usemtl palette

# normals
vn -1 0 0
vn 1 0 0
vn 0 0 1
vn 0 0 -1
vn 0 -1 0
vn 0 1 0

# texcoords
vt 0.365234 0.5
vt 0.369141 0.5
vt 0.373047 0.5
vt 0.470703 0.5
vt 0.783203 0.5
vt 0.962891 0.5

# verts
v -0.4 1.5 0.3
v -0.4 1.5 0.2
v -0.4 1.8 0.2
v -0.4 1.8 -0.3
v -0.4 2 0.2
v -0.4 2 -0.3
v -0.4 2.1 0.3
v -0.4 2.1 0.2
v -0.4 2.1 -0.2
v -0.4 2.1 -0.3
v -0.4 2.6 0.2
v -0.4 2.6 -0.2
v -0.4 2.8 0.3
v -0.4 2.8 -0.3
v -0.2 2.8 0.2
v -0.2 2.8 -0.2
v -0.2 2.9 0.2
v -0.2 2.9 -0.2
v 0.2 2.8 0.2
v 0.2 2.8 -0.2
v 0.2 2.9 0.2
v 0.2 2.9 -0.2
v 0.4 1.5 0.3
v 0.4 1.5 0.2
v 0.4 1.8 0.2
v 0.4 1.8 -0.3
v 0.4 2 0.2
v 0.4 2 -0.3
v 0.4 2.1 0.3
v 0.4 2.1 0.2
v 0.4 2.1 -0.2
v 0.4 2.1 -0.3
v 0.4 2.7 0.2
v 0.4 2.7 -0.2
v 0.4 2.8 0.3
v 0.4 2.8 -0.3
v -0.4 1.5 0.3
v -0.4 2.1 0.3
v -0.4 2.8 0.3
v -0.3 1.9 0.3
v -0.3 2 0.3
v -0.3 2.1 0.3
v -0.3 2.8 0.3
v -0.2 1.8 0.3
v -0.2 1.9 0.3
v -0.2 2 0.3
v -0.2 2.6 0.3
v -0.2 2.8 0.3
v -0.1 1.8 0.3
v -0.1 1.9 0.3
v -0.1 2.5 0.3
v -0.1 2.6 0.3
v 0 1.6 0.3
v 0 1.7 0.3
v 0 2.3 0.3
v 0 2.4 0.3
v 0.1 1.6 0.3
v 0.1 1.7 0.3
v 0.1 1.8 0.3
v 0.1 2.2 0.3
v 0.1 2.3 0.3
v 0.1 2.4 0.3
v 0.1 2.5 0.3
v 0.1 2.6 0.3
v 0.2 1.7 0.3
v 0.2 1.8 0.3
v 0.2 2.2 0.3
v 0.2 2.3 0.3
v 0.2 2.6 0.3
v 0.2 2.8 0.3
v 0.3 2.1 0.3
v 0.3 2.8 0.3
v 0.4 1.5 0.3
v 0.4 2.1 0.3
v 0.4 2.8 0.3
v -0.2 2.8 0.2
v -0.2 2.9 0.2
v 0.2 2.8 0.2
v 0.2 2.9 0.2
v -0.4 1.5 0.2
v -0.4 1.8 0.2
v -0.3 1.8 0.2
v -0.1 1.8 0.2
v 0 1.6 0.2
v 0 1.7 0.2
v 0.1 1.6 0.2
v 0.1 1.7 0.2
v 0.1 1.8 0.2
v 0.2 1.7 0.2
v 0.2 1.8 0.2
v 0.4 1.5 0.2
v 0.4 1.8 0.2
v -0.2 2.8 -0.2
v -0.2 2.9 -0.2
v 0.2 2.8 -0.2
v 0.2 2.9 -0.2
v -0.4 1.8 -0.3
v -0.4 2 -0.3
v -0.4 2.1 -0.3
v -0.4 2.8 -0.3
v -0.3 2.1 -0.3
v -0.3 2.8 -0.3
v -0.2 2.3 -0.3
v -0.2 2.8 -0.3
v 0.2 2.3 -0.3
v 0.2 2.8 -0.3
v 0.3 2.1 -0.3
v 0.3 2.8 -0.3
v 0.4 1.8 -0.3
v 0.4 2 -0.3
v 0.4 2.1 -0.3
v 0.4 2.8 -0.3
v -0.4 1.5 0.3
v 0.4 1.5 0.3
v -0.4 1.5 0.2
v 0.4 1.5 0.2
v -0.4 1.8 0.2
v -0.3 1.8 0.2
v -0.1 1.8 0.2
v 0.1 1.8 0.2
v 0.2 1.8 0.2
v 0.4 1.8 0.2
v 0.1 1.8 0.1
v 0.3 1.8 0.1
v -0.3 1.8 -0.2
v -0.1 1.8 -0.2
v 0.1 1.8 -0.2
v 0.3 1.8 -0.2
v -0.4 1.8 -0.3
v 0.4 1.8 -0.3
v -0.4 2.8 0.3
v -0.3 2.8 0.3
v -0.2 2.8 0.3
v 0.2 2.8 0.3
v 0.3 2.8 0.3
v 0.4 2.8 0.3
v -0.2 2.8 0.2
v 0.2 2.8 0.2
v -0.2 2.8 -0.2
v 0.2 2.8 -0.2
v -0.4 2.8 -0.3
v -0.3 2.8 -0.3
v -0.2 2.8 -0.3
v 0.2 2.8 -0.3
v 0.3 2.8 -0.3
v 0.4 2.8 -0.3
v -0.2 2.9 0.2
v 0.2 2.9 0.2
v -0.1 2.9 0.1
v 0.1 2.9 0.1
v -0.1 2.9 -0.1
v 0.1 2.9 -0.1
v -0.2 2.9 -0.2
v 0.2 2.9 -0.2

# faces
f 3/6/1 2/6/1 1/6/1
f 5/6/1 3/6/1 1/6/1
f 5/5/1 4/5/1 3/5/1
f 6/5/1 4/5/1 5/5/1
f 7/6/1 5/6/1 1/6/1
f 7/6/1 6/6/1 5/6/1
f 8/6/1 6/6/1 7/6/1
f 9/6/1 6/6/1 8/6/1
f 10/6/1 6/6/1 9/6/1
f 11/5/1 8/5/1 7/5/1
f 11/4/1 9/4/1 8/4/1
f 12/5/1 10/5/1 9/5/1
f 12/4/1 9/4/1 11/4/1
f 13/5/1 11/5/1 7/5/1
f 13/5/1 12/5/1 11/5/1
f 14/5/1 10/5/1 12/5/1
f 14/5/1 12/5/1 13/5/1
f 17/5/1 16/5/1 15/5/1
f 18/5/1 16/5/1 17/5/1
f 19/5/2 20/5/2 21/5/2
f 21/5/2 20/5/2 22/5/2
f 23/6/2 24/6/2 25/6/2
f 23/6/2 25/6/2 27/6/2
f 25/5/2 26/5/2 27/5/2
f 27/5/2 26/5/2 28/5/2
f 23/6/2 27/6/2 29/6/2
f 27/6/2 28/6/2 29/6/2
f 29/6/2 28/6/2 30/6/2
f 30/6/2 28/6/2 31/6/2
f 31/6/2 28/6/2 32/6/2
f 29/5/2 30/5/2 33/5/2
f 30/4/2 31/4/2 33/4/2
f 31/5/2 32/5/2 34/5/2
f 33/4/2 31/4/2 34/4/2
f 29/5/2 33/5/2 35/5/2
f 33/5/2 34/5/2 35/5/2
f 34/5/2 32/5/2 36/5/2
f 35/5/2 34/5/2 36/5/2
f 40/6/3 38/6/3 37/6/3
f 41/6/3 38/6/3 40/6/3
f 42/5/3 39/5/3 38/5/3
f 42/6/3 38/6/3 41/6/3
f 43/5/3 39/5/3 42/5/3
f 44/6/3 40/6/3 37/6/3
f 45/2/3 41/2/3 40/2/3
f 45/6/3 40/6/3 44/6/3
f 46/6/3 42/6/3 41/6/3
f 46/2/3 41/2/3 45/2/3
f 46/6/3 43/6/3 42/6/3
f 47/6/3 43/6/3 46/6/3
f 48/6/3 43/6/3 47/6/3
f 49/6/3 44/6/3 37/6/3
f 49/1/3 45/1/3 44/1/3
f 50/6/3 46/6/3 45/6/3
f 50/1/3 45/1/3 49/1/3
f 50/6/3 47/6/3 46/6/3
f 51/6/3 47/6/3 50/6/3
f 52/5/3 48/5/3 47/5/3
f 52/6/3 47/6/3 51/6/3
f 53/6/3 51/6/3 50/6/3
f 53/6/3 49/6/3 37/6/3
f 53/6/3 50/6/3 49/6/3
f 54/6/3 51/6/3 53/6/3
f 55/6/3 51/6/3 54/6/3
f 56/6/3 51/6/3 55/6/3
f 57/6/3 53/6/3 37/6/3
f 57/3/3 54/3/3 53/3/3
f 58/6/3 55/6/3 54/6/3
f 58/3/3 54/3/3 57/3/3
f 59/6/3 55/6/3 58/6/3
f 60/6/3 55/6/3 59/6/3
f 61/3/3 56/3/3 55/3/3
f 61/6/3 55/6/3 60/6/3
f 62/6/3 51/6/3 56/6/3
f 62/3/3 56/3/3 61/3/3
f 63/5/3 52/5/3 51/5/3
f 63/6/3 51/6/3 62/6/3
f 64/5/3 48/5/3 52/5/3
f 64/5/3 52/5/3 63/5/3
f 65/6/3 58/6/3 57/6/3
f 65/3/3 59/3/3 58/3/3
f 66/6/3 60/6/3 59/6/3
f 66/3/3 59/3/3 65/3/3
f 67/1/3 61/1/3 60/1/3
f 67/6/3 60/6/3 66/6/3
f 68/6/3 63/6/3 62/6/3
f 68/1/3 61/1/3 67/1/3
f 68/6/3 62/6/3 61/6/3
f 68/6/3 64/6/3 63/6/3
f 69/5/3 48/5/3 64/5/3
f 69/6/3 64/6/3 68/6/3
f 70/5/3 48/5/3 69/5/3
f 71/6/3 67/6/3 66/6/3
f 71/6/3 68/6/3 67/6/3
f 71/6/3 70/6/3 69/6/3
f 71/6/3 69/6/3 68/6/3
f 71/6/3 66/6/3 65/6/3
f 72/6/3 70/6/3 71/6/3
f 73/6/3 57/6/3 37/6/3
f 73/6/3 65/6/3 57/6/3
f 73/6/3 71/6/3 65/6/3
f 74/5/3 72/5/3 71/5/3
f 74/6/3 71/6/3 73/6/3
f 75/5/3 72/5/3 74/5/3
f 78/5/3 77/5/3 76/5/3
f 79/5/3 77/5/3 78/5/3
f 80/6/4 81/6/4 82/6/4
f 80/6/4 82/6/4 83/6/4
f 80/6/4 83/6/4 84/6/4
f 84/6/4 83/6/4 85/6/4
f 80/6/4 84/6/4 86/6/4
f 84/3/4 85/3/4 86/3/4
f 85/6/4 83/6/4 87/6/4
f 86/3/4 85/3/4 87/3/4
f 87/6/4 83/6/4 88/6/4
f 86/6/4 87/6/4 89/6/4
f 87/3/4 88/3/4 89/3/4
f 89/3/4 88/3/4 90/3/4
f 80/6/4 86/6/4 91/6/4
f 86/6/4 89/6/4 91/6/4
f 89/6/4 90/6/4 91/6/4
f 91/6/4 90/6/4 92/6/4
f 93/5/4 94/5/4 95/5/4
f 95/5/4 94/5/4 96/5/4
f 98/6/4 99/6/4 101/6/4
f 99/5/4 100/5/4 101/5/4
f 101/5/4 100/5/4 102/5/4
f 101/6/4 102/6/4 103/6/4
f 103/6/4 102/6/4 104/6/4
f 101/6/4 103/6/4 105/6/4
f 103/5/4 104/5/4 105/5/4
f 105/5/4 104/5/4 106/5/4
f 98/6/4 101/6/4 107/6/4
f 101/6/4 105/6/4 107/6/4
f 105/6/4 106/6/4 107/6/4
f 107/6/4 106/6/4 108/6/4
f 97/5/4 98/5/4 109/5/4
f 98/6/4 107/6/4 110/6/4
f 109/5/4 98/5/4 110/5/4
f 107/5/4 108/5/4 111/5/4
f 110/6/4 107/6/4 111/6/4
f 111/5/4 108/5/4 112/5/4
f 115/6/5 114/6/5 113/6/5
f 116/6/5 114/6/5 115/6/5
f 123/5/5 120/5/5 119/5/5
f 123/5/5 122/5/5 121/5/5
f 123/5/5 121/5/5 120/5/5
f 124/5/5 122/5/5 123/5/5
f 125/5/5 118/5/5 117/5/5
f 125/4/5 119/4/5 118/4/5
f 126/5/5 123/5/5 119/5/5
f 126/4/5 119/4/5 125/4/5
f 127/4/5 124/4/5 123/4/5
f 127/5/5 123/5/5 126/5/5
f 128/5/5 122/5/5 124/5/5
f 128/4/5 124/4/5 127/4/5
f 129/5/5 127/5/5 126/5/5
f 129/5/5 126/5/5 125/5/5
f 129/5/5 128/5/5 127/5/5
f 129/5/5 125/5/5 117/5/5
f 130/5/5 122/5/5 128/5/5
f 130/5/5 128/5/5 129/5/5
f 132/6/6 133/6/6 137/6/6
f 133/5/6 134/5/6 137/5/6
f 134/6/6 135/6/6 138/6/6
f 137/5/6 134/5/6 138/5/6
f 132/6/6 137/6/6 139/6/6
f 138/6/6 135/6/6 140/6/6
f 131/5/6 132/5/6 141/5/6
f 132/6/6 139/6/6 142/6/6
f 141/5/6 132/5/6 142/5/6
f 139/5/6 140/5/6 143/5/6
f 142/6/6 139/6/6 143/6/6
f 140/6/6 135/6/6 144/6/6
f 143/5/6 140/5/6 144/5/6
f 135/5/6 136/5/6 145/5/6
f 144/6/6 135/6/6 145/6/6
f 145/5/6 136/5/6 146/5/6
f 147/5/6 148/5/6 149/5/6
f 149/5/6 148/5/6 150/5/6
f 147/5/6 149/5/6 151/5/6
f 149/4/6 150/4/6 151/4/6
f 150/5/6 148/5/6 152/5/6
f 151/4/6 150/4/6 152/4/6
f 147/5/6 151/5/6 153/5/6
f 151/5/6 152/5/6 153/5/6
f 152/5/6 148/5/6 154/5/6
f 153/5/6 152/5/6 154/5/6
